<?xml version="1.0" encoding="UTF-8"?>
<svg width="102px" height="23px" viewBox="0 0 102 23" version="1.1" xmlns="http://www.w3.org/2000/svg" xmlns:xlink="http://www.w3.org/1999/xlink">
    <title>Brand/logo-poweredby2 Copy 2</title>
    <g id="MC-Landing-Page" stroke="none" stroke-width="1" fill="none" fill-rule="evenodd">
        <g id="MC---Desktop/Landing-Page-(Marqee-Edition)" transform="translate(-332.000000, -75.000000)" fill="#3067F0">
            <g id="Group-7" transform="translate(170.000000, 64.000000)">
                <g id="Group" transform="translate(162.000000, 11.000000)">
                    <g id="Wazir-Logo---Horizontal" transform="translate(0.000000, 0.884615)">
                        <polygon id="Fill-1" points="32.4659579 7.27630012 36.1829866 7.27630012 37.9774143 14.355762 39.9642595 7.27630012 42.9763345 7.27630012 44.9630223 14.355762 46.75745 7.27630012 50.4746362 7.27630012 46.75745 18.7264668 43.4890282 18.7264668 41.4061316 11.2469456 39.4194438 18.6957628 36.0869353 18.6957628"></polygon>
                        <path d="M57.2358777,15.8639327 C55.5724578,15.8639327 54.2238027,14.5686177 54.2238027,12.9706492 C54.2238027,11.3726807 55.5724578,10.0772145 57.2358777,10.0772145 C58.8992977,10.0772145 60.2479527,11.3726807 60.2479527,12.9706492 C60.2479527,14.5686177 58.8992977,15.8639327 57.2358777,15.8639327 L57.2358777,15.8639327 Z M60.2479527,7.24549026 L60.2479527,8.47939723 C59.6303899,7.44105801 58.6070497,6.87613492 56.9795309,6.87613492 C53.4046896,6.87613492 50.6347899,9.53664285 50.6347899,12.9706492 C50.6347899,16.4045043 53.2763588,19.188282 56.8513575,19.188282 C58.5675269,19.188282 59.6210997,18.5970412 60.2479527,17.536468 L60.2479527,18.6956569 L63.7728788,18.6956569 L63.7728788,7.24549026 L60.2479527,7.24549026 Z" id="Fill-2"></path>
                        <polygon id="Fill-4" points="65.4390858 7.24550538 74.2832082 7.24550538 74.2832082 9.95411118 69.6688082 16.1101847 74.2832082 16.1101847 74.2832082 18.695672 65.4390858 18.695672 65.4390858 16.3564216 70.5019353 9.83099273 65.4390858 9.83099273"></polygon>
                        <polygon id="Fill-6" points="75.8853285 18.6957023 79.4743413 18.6957023 79.4743413 7.24553563 75.8853285 7.24553563"></polygon>
                        <path d="M85.3703809,8.41414748 L85.3703809,7.24542975 L82.0378723,7.24542975 L82.0378723,18.6957477 L85.6267277,18.6957477 L85.6267277,12.262582 C85.6267277,10.1388645 88.3826133,10.3235421 88.3826133,10.3235421 L88.3826133,6.87607442 C86.6414075,6.87607442 85.7582078,7.81277286 85.3703809,8.41414748" id="Fill-8"></path>
                        <polygon id="Fill-9" points="88.8311415 7.24550538 93.125108 7.24550538 95.0475516 10.2619073 96.9703102 7.24550538 101.264119 7.24550538 97.1625703 12.601309 101.712884 18.5109944 101.712884 18.695672 97.4189171 18.695672 95.0475516 15.1867964 92.6765011 18.695672 88.3825346 18.695672 88.3825346 18.5109944 92.8687612 12.601309"></polygon>
                        <path d="M79.2180102,4.72150163 C79.2180102,3.90550161 78.529275,3.24408028 77.6797719,3.24408028 C76.8304263,3.24408028 76.1418485,3.90550161 76.1418485,4.72150163 C76.1418485,5.53750164 76.8304263,6.19892297 77.6797719,6.19892297 C78.529275,6.19892297 79.2180102,5.53750164 79.2180102,4.72150163" id="Fill-10"></path>
                        <g id="Group-7">
                            <polygon id="Path" points="1.07062759 22.1149501 25.4030729 22.1149501 25.4030729 19.3582389 1.07062759 19.3582389"></polygon>
                            <polygon id="Path" points="6.00200318 8.47464284 0 4.47199823 1.10336575 16.4177469"></polygon>
                            <polygon id="Path" points="8.56502076 17.8879929 25.4276919 17.8879929 26.6359168 4.77829948"></polygon>
                            <polygon id="Path" points="18.9793074 8.22764916 5.77710379 17.7961025 2.14125519 17.7961025 8.84981143 6.90459342 13.1319175 0"></polygon>
                        </g>
                    </g>
                </g>
            </g>
        </g>
    </g>
</svg>