<svg xmlns="http://www.w3.org/2000/svg" width="147" height="39" viewBox="0 0 147 39">
    <g fill="none" fill-rule="nonzero">
        <rect width="147" height="39" fill="#000" rx="8"/>
        <g fill="#FFF">
            <path d="M55.71 29h-1.444V18.336h1.593l3.375 7.797h.04l3.367-7.797h1.593V29h-1.453v-7.523h-.062l-2.86 6.484h-1.226l-2.867-6.484h-.055V29h-.001zm15.5-1.016c-.382.641-1.116 1.149-2.335 1.149-1.594 0-2.688-.977-2.688-2.5 0-1.453 1.008-2.375 2.899-2.383h2.117v-.805c0-1-.578-1.547-1.61-1.547-.984 0-1.546.508-1.616 1.274h-1.485c.078-1.414 1.031-2.54 3.149-2.54 1.796 0 3.132.93 3.132 2.727V29h-1.507v-1.016h-.056zm-1.874-.093c1.062 0 1.867-.664 1.867-1.618v-.93h-1.898c-1.055 0-1.524.5-1.524 1.212 0 .906.75 1.336 1.555 1.336zm5.305-2.664v-.766c0-2.242 1.304-3.836 3.5-3.836 1.968 0 3.156 1.281 3.226 2.648h-1.515c-.157-.695-.774-1.312-1.618-1.312-1.265 0-2.007.96-2.007 2.539v.734c0 1.563.78 2.563 2.015 2.563.985 0 1.531-.547 1.664-1.195h1.508c-.234 1.554-1.367 2.539-3.273 2.539-2.22 0-3.5-1.649-3.5-3.914zm9.843-2.274v1.516c0 2.281 1.188 3.351 2.75 3.351 1.57 0 2.75-1.07 2.75-3.351v-1.516c0-2.273-1.18-3.437-2.75-3.437-1.562 0-2.75 1.164-2.75 3.437zM82.86 24.47v-1.5c0-3.032 1.72-4.852 4.391-4.852 2.672 0 4.36 1.82 4.36 4.852v1.5c0 3.015-1.712 4.75-4.391 4.75-2.672 0-4.36-1.735-4.36-4.75zm10.024 1.601h1.586c.094.97.93 1.79 2.492 1.79 1.422 0 2.297-.68 2.297-1.75 0-.844-.547-1.305-1.711-1.594l-1.797-.453c-1.328-.329-2.563-1.141-2.563-2.844 0-2.024 1.782-3.125 3.79-3.125 1.968 0 3.734 1.054 3.773 3.078h-1.555c-.086-.953-.82-1.727-2.242-1.727-1.266 0-2.148.602-2.148 1.657 0 .718.484 1.242 1.492 1.484l1.781.453c1.617.406 2.805 1.164 2.805 2.938 0 2.093-1.727 3.242-4.063 3.242-2.906 0-3.898-1.727-3.937-3.149zM53.617 8.668h1.785c1.72 0 2.36 1.102 2.36 2.66 0 1.535-.617 2.672-2.36 2.672h-1.785V8.668zm.805.691v3.95h.91c1.078 0 1.598-.645 1.598-1.97 0-1.194-.422-1.98-1.598-1.98h-.91zm5.883.454c1.168 0 1.8.832 1.8 1.945v.347c0 1.145-.628 1.965-1.8 1.965-1.176 0-1.813-.82-1.813-1.965v-.343c0-1.114.637-1.95 1.813-1.95v.001zm-.004.648c-.668 0-1.016.531-1.016 1.316v.317c0 .777.348 1.32 1.016 1.32.672 0 1.011-.539 1.011-1.32v-.317c0-.789-.343-1.316-1.011-1.316zm7.941-.578L67.172 14h-.824l-.891-3.094h-.02L64.547 14h-.824l-1.07-4.117h.796l.711 3.183h.035l.88-3.183h.75l.882 3.183h.031l.711-3.183h.793zM69.016 14V9.883h.777v.562h.027c.145-.27.524-.629 1.2-.629.843 0 1.457.536 1.457 1.54V14h-.786v-2.496c0-.672-.394-.992-.941-.992-.648 0-.95.46-.95 1.011V14h-.784zm4.57 0V8.387h.785V14h-.785zm3.598-4.188c1.168 0 1.8.833 1.8 1.946v.347c0 1.145-.629 1.965-1.8 1.965-1.176 0-1.813-.82-1.813-1.965v-.343c0-1.114.637-1.95 1.813-1.95zm-.004.649c-.668 0-1.016.531-1.016 1.316v.317c0 .777.348 1.32 1.016 1.32.672 0 1.011-.539 1.011-1.32v-.317c0-.789-.343-1.316-1.011-1.316zm5.066 3.031c-.191.32-.558.574-1.168.574-.797 0-1.344-.488-1.344-1.25 0-.726.504-1.187 1.45-1.191h1.058v-.402c0-.5-.289-.774-.805-.774-.492 0-.773.254-.808.637h-.742c.039-.707.515-1.27 1.574-1.27.898 0 1.566.465 1.566 1.364V14h-.754v-.508h-.027zm-.937-.047c.53 0 .933-.332.933-.808v-.465h-.949c-.527 0-.762.25-.762.605 0 .453.375.668.778.668zm4.277-3.629c.55 0 .98.274 1.18.645h.027V8.387h.789V14h-.766v-.625h-.023c-.219.422-.652.684-1.207.684-1.05 0-1.621-.774-1.621-1.938v-.367c0-1.14.601-1.938 1.62-1.938h.001zm.172.664c-.574 0-.992.43-.992 1.301v.317c0 .867.418 1.297 1 1.297.64 0 1.035-.461 1.035-1.293v-.32c0-.794-.399-1.302-1.043-1.302zM90.605 14v-3.477h-.566v-.64h.566v-.41c0-.805.407-1.157 1.29-1.157.168 0 .277.012.347.024v.61a1.271 1.271 0 0 0-.222-.016c-.43 0-.637.14-.637.601v.348h.805v.64h-.797V14h-.786zm4.075-4.188c1.168 0 1.8.833 1.8 1.946v.347c0 1.145-.628 1.965-1.8 1.965-1.176 0-1.813-.82-1.813-1.965v-.343c0-1.114.637-1.95 1.813-1.95zm-.004.649c-.668 0-1.016.531-1.016 1.316v.317c0 .777.348 1.32 1.016 1.32.672 0 1.011-.539 1.011-1.32v-.317c0-.789-.343-1.316-1.011-1.316zM97.457 14V9.883h.79v.523h.026c.11-.25.418-.586.997-.586.101 0 .195.008.277.02v.707a2.095 2.095 0 0 0-.352-.024c-.71 0-.941.438-.941.993V14h-.797zM33.445 14.374c2.28 0 3.74 2.196 3.74 2.196s-2.226 1.202-2.226 3.812c0 3.097 2.795 3.998 2.795 3.998s-2.206 5.209-4.684 5.209c-1.393 0-1.486-.797-3.337-.797-1.608 0-2.15.797-3.376.797-2.336 0-5.357-5.078-5.357-9.207 0-4.29 3.058-6.008 4.974-6.008 1.684 0 2.385.985 3.74.985 1.14 0 2.038-.985 3.73-.985h.001z"/>
            <path d="M33.052 10c.336 2.103-1.58 4.703-3.87 4.618-.337-2.675 2.131-4.477 3.87-4.618z"/>
        </g>
    </g>
</svg>
