<svg xmlns="http://www.w3.org/2000/svg" width="147" height="39" viewBox="0 0 147 39">
    <g fill="none" fill-rule="nonzero">
        <rect width="147" height="39" fill="#000" rx="8"/>
        <path fill="#FFF" d="M65.953 30.156h-2.031l-1.938-6.812a26.316 26.316 0 0 1-.312-1.285c-.125-.56-.2-.95-.227-1.168a21.65 21.65 0 0 1-.254 1.297c-.117.53-.214.927-.293 1.187l-1.89 6.781h-2.031L55.5 24.438 54 18.733h1.906l1.633 6.657c.255 1.067.438 2.01.547 2.828.057-.443.143-.938.258-1.485.114-.547.218-.99.312-1.328l1.86-6.672h1.851l1.906 6.703c.183.62.375 1.547.579 2.782.078-.745.265-1.693.562-2.844l1.625-6.64h1.89l-2.976 11.421v.001zm5.734 0h-1.835v-8.64h1.835v8.64zm-1.945-10.93c0-.328.09-.58.27-.757.18-.177.436-.266.77-.266.322 0 .573.089.753.266.18.177.27.43.27.758 0 .312-.09.558-.27.738-.18.18-.43.27-.754.27-.333 0-.59-.09-.77-.27-.179-.18-.269-.426-.269-.738v-.001zm11.672 10.93H79.57v-5.312c0-.667-.134-1.164-.402-1.492-.268-.329-.694-.493-1.277-.493-.776 0-1.344.23-1.704.688-.359.458-.539 1.226-.539 2.305v4.304h-1.835v-8.64h1.437l.258 1.132h.094c.26-.411.63-.729 1.109-.953a3.718 3.718 0 0 1 1.594-.336c2.073 0 3.11 1.055 3.11 3.164v5.633h-.001zm4.969.157c-1.078 0-1.92-.391-2.524-1.172-.604-.782-.906-1.878-.906-3.29 0-1.416.306-2.519.918-3.308.612-.79 1.46-1.184 2.543-1.184 1.135 0 2 .42 2.594 1.258h.094c-.089-.62-.133-1.11-.133-1.469V18h1.844v12.156h-1.438l-.32-1.133h-.086c-.589.86-1.45 1.29-2.586 1.29zm.492-1.485c.755 0 1.305-.212 1.648-.637.344-.424.521-1.113.532-2.066v-.258c0-1.088-.177-1.862-.532-2.32-.354-.458-.908-.688-1.664-.688-.645 0-1.143.262-1.492.786-.349.523-.523 1.27-.523 2.238 0 .958.169 1.689.508 2.191.338.503.846.754 1.523.754zm13.727-3.008c0 1.412-.362 2.513-1.086 3.305-.724.792-1.732 1.188-3.024 1.188-.807 0-1.52-.183-2.14-.547a3.61 3.61 0 0 1-1.43-1.57c-.333-.683-.5-1.475-.5-2.376 0-1.4.36-2.494 1.078-3.28.719-.787 1.732-1.18 3.04-1.18 1.25 0 2.239.402 2.968 1.206.729.805 1.094 1.89 1.094 3.254zm-6.29 0c0 1.995.737 2.992 2.211 2.992 1.459 0 2.188-.997 2.188-2.992 0-1.974-.734-2.96-2.203-2.96-.771 0-1.33.255-1.676.765-.346.51-.52 1.242-.52 2.195zm14.665 4.336l-1.118-4.031c-.135-.427-.38-1.42-.734-2.977h-.07c-.302 1.407-.542 2.404-.72 2.993l-1.147 4.015h-2.032l-2.422-8.64h1.875l1.102 4.257a29.6 29.6 0 0 1 .531 2.704h.047c.052-.38.132-.817.238-1.309.107-.492.2-.86.278-1.105l1.312-4.547h2.016l1.273 4.547c.078.255.176.645.293 1.171.117.526.186.935.207 1.227h.063c.078-.64.26-1.537.547-2.688l1.117-4.257h1.844l-2.438 8.64h-2.062zm11.289-2.46c0 .843-.308 1.49-.922 1.94-.615.451-1.495.677-2.64.677-1.152 0-2.076-.175-2.774-.524v-1.586c1.015.469 1.96.703 2.836.703 1.13 0 1.695-.34 1.695-1.023a.81.81 0 0 0-.188-.547c-.125-.146-.33-.297-.617-.453a10.621 10.621 0 0 0-1.195-.531c-.995-.386-1.668-.771-2.02-1.157-.351-.385-.527-.885-.527-1.5 0-.74.298-1.313.895-1.722.596-.41 1.407-.614 2.433-.614 1.016 0 1.977.206 2.883.618l-.594 1.382c-.932-.385-1.716-.578-2.351-.578-.97 0-1.453.276-1.453.828 0 .271.126.5.378.688.253.187.804.445 1.653.773.713.276 1.232.529 1.555.758.322.23.562.494.718.793.157.3.235.658.235 1.074v.001zM24.007 19.4L24 13.549l7.2-.978V19.4h-7.193zm8.393-7.003L41.998 11v8.4H32.4v-7.003zM42 20.6l-.002 8.4-9.598-1.35V20.6H42zm-10.8 6.897l-7.194-.986V20.6H31.2v6.897zM53.617 9.668h1.785c1.72 0 2.36 1.102 2.36 2.66 0 1.535-.617 2.672-2.36 2.672h-1.785V9.668zm.805.691v3.95h.91c1.078 0 1.598-.645 1.598-1.97 0-1.194-.422-1.98-1.598-1.98h-.91zm5.883.454c1.168 0 1.8.832 1.8 1.945v.347c0 1.145-.628 1.965-1.8 1.965-1.176 0-1.813-.82-1.813-1.965v-.343c0-1.114.637-1.95 1.813-1.95v.001zm-.004.648c-.668 0-1.016.531-1.016 1.316v.317c0 .777.348 1.32 1.016 1.32.672 0 1.011-.539 1.011-1.32v-.317c0-.789-.343-1.316-1.011-1.316zm7.941-.578L67.172 15h-.824l-.891-3.094h-.02L64.547 15h-.824l-1.07-4.117h.796l.711 3.183h.035l.88-3.183h.75l.882 3.183h.031l.711-3.183h.793zM69.016 15v-4.117h.777v.562h.027c.145-.27.524-.629 1.2-.629.843 0 1.457.536 1.457 1.54V15h-.786v-2.496c0-.672-.394-.992-.941-.992-.648 0-.95.46-.95 1.011V15h-.784zm4.57 0V9.387h.785V15h-.785zm3.598-4.188c1.168 0 1.8.833 1.8 1.946v.347c0 1.145-.629 1.965-1.8 1.965-1.176 0-1.813-.82-1.813-1.965v-.343c0-1.114.637-1.95 1.813-1.95zm-.004.649c-.668 0-1.016.531-1.016 1.316v.317c0 .777.348 1.32 1.016 1.32.672 0 1.011-.539 1.011-1.32v-.317c0-.789-.343-1.316-1.011-1.316zm5.066 3.031c-.191.32-.558.574-1.168.574-.797 0-1.344-.488-1.344-1.25 0-.726.504-1.187 1.45-1.191h1.058v-.402c0-.5-.289-.774-.805-.774-.492 0-.773.254-.808.637h-.742c.039-.707.515-1.27 1.574-1.27.898 0 1.566.465 1.566 1.364V15h-.754v-.508h-.027zm-.937-.047c.53 0 .933-.332.933-.808v-.465h-.949c-.527 0-.762.25-.762.605 0 .453.375.668.778.668zm4.277-3.629c.55 0 .98.274 1.18.645h.027V9.387h.789V15h-.766v-.625h-.023c-.219.422-.652.684-1.207.684-1.05 0-1.621-.774-1.621-1.938v-.367c0-1.14.601-1.938 1.62-1.938h.001zm.172.664c-.574 0-.992.43-.992 1.301v.317c0 .867.418 1.297 1 1.297.64 0 1.035-.461 1.035-1.293v-.32c0-.794-.399-1.302-1.043-1.302zm4.617-1.812h2.004c1.058 0 1.73.703 1.73 1.7 0 1.003-.675 1.69-1.734 1.69h-1.2V15h-.8V9.668zm.8.684v2.03h.75c.856 0 1.36-.19 1.36-1.015 0-.648-.37-1.015-1.008-1.015H91.175zm4.345 1.664v.668c0 1.191.535 1.722 1.347 1.722.793 0 1.203-.504 1.203-1.082h.785v.043c0 .813-.648 1.742-2.011 1.742-1.313 0-2.133-.843-2.133-2.421v-.68c0-1.582.832-2.45 2.137-2.45 1.308 0 2.007.91 2.007 1.825v.039h-.785c0-.57-.422-1.16-1.218-1.16-.79 0-1.332.57-1.332 1.754zm6.468 1.148h-2.46v-.703h2.46v.703zm1.52-1.148v.668c0 1.191.535 1.722 1.347 1.722.793 0 1.204-.504 1.204-1.082h.785v.043c0 .813-.649 1.742-2.012 1.742-1.312 0-2.133-.843-2.133-2.421v-.68c0-1.582.832-2.45 2.137-2.45 1.309 0 2.008.91 2.008 1.825v.039h-.785c0-.57-.422-1.16-1.22-1.16-.788 0-1.331.57-1.331 1.754zm4.3 2.984V9.387h.786V15h-.786zm1.993 0v-4.117h.789V15h-.79.001zm-.086-5.121c0-.266.215-.465.48-.465.266 0 .48.2.48.465a.467.467 0 0 1-.48.465c-.265 0-.48-.2-.48-.465zm3.66 5.191c-1.09 0-1.773-.742-1.773-1.941v-.434c0-1.129.656-1.883 1.742-1.883 1.09 0 1.734.774 1.734 1.922v.391h-2.691v.086c0 .73.383 1.223 1.004 1.223.453 0 .757-.227.875-.594h.761c-.136.672-.675 1.23-1.652 1.23zm-.988-2.523h1.914v-.012c0-.613-.38-1.094-.953-1.094-.586 0-.961.485-.961 1.094v.012zM116.039 15v-4.117h.777v.562h.028c.144-.27.523-.629 1.199-.629.844 0 1.457.536 1.457 1.54V15h-.785v-2.496c0-.672-.395-.992-.942-.992-.648 0-.949.46-.949 1.011V15h-.785zm4.82-4.117V9.867h.778v1.016h.808v.64h-.808v2.282c0 .468.168.593.648.593.07 0 .133-.003.188-.007v.613a2.592 2.592 0 0 1-.383.027c-.992 0-1.238-.367-1.238-1.187v-2.32h-.563v-.641h.57z"/>
    </g>
</svg>
